<svg width="485" height="497" viewBox="0 0 485 497" fill="none" xmlns="http://www.w3.org/2000/svg">
<path fill-rule="evenodd" clip-rule="evenodd" d="M226.148 1.6508C254.976 -0.611679 284.687 -2.0136 311.952 7.62576C339.388 17.3253 367.296 32.5815 382.994 57.1013C398.869 81.8975 392.37 114.519 398.788 143.26C403.975 166.492 406.182 190.604 417.482 211.551C435.624 245.18 483.223 264.815 484.958 302.993C486.443 335.67 448.271 356.586 425.121 379.675C403.573 401.167 377.142 415.845 353.102 434.501C326.963 454.787 308.289 488.933 275.87 495.503C243.543 502.054 209.797 485.964 181.317 469.314C154.887 453.863 142.397 422.472 118.405 403.449C97.1612 386.606 68.0801 382.223 48.2099 363.778C27.2648 344.334 2.59637 322.14 0.131725 293.655C-2.45362 263.775 33.8605 241.54 35.0403 211.572C36.3062 179.415 1.36199 151.755 6.96539 120.066C12.2041 90.4385 39.0543 68.2496 63.4836 50.7145C87.3165 33.6076 117.321 29.1667 145.403 20.6967C172.106 12.6422 198.343 3.83292 226.148 1.6508Z" fill="#C961DE"/>
</svg>
